<svg version="1.1" baseProfile="full" width="100%" height="100%" viewBox="0 0 4320 3240"  xmlns="http://www.w3.org/2000/svg" xmlns:xlink="http://www.w3.org/1999/xlink" xmlns:ev="http://www.w3.org/2001/xml-events" >
 <title>New cases per million</title>
<desc>Created by Causeway SVG engine - SharpPlot v3.71.0</desc>
<g stroke-miterlimit="100">
<desc>Paint the paper =====</desc>
 <g fill="White" >
  <rect x="0" y="0" width="4320" height="3240" />
 </g>
<desc>Border =====</desc>
<desc>Region =====</desc>
<desc>X-Axis Ticks =====</desc>
<desc>X-Axis tickmarks</desc>
 <path fill="none" stroke-width="7.2" stroke="Black" d="M400 2500L400 2544M662 2500L662 2544M925 2500L925 2544M1162 2500L1162 2544M1424 2500L1424 2544M1678 2500L1678 2544M1940 2500L1940 2544"/>
<desc>Y-Axis Ticks =====</desc>
<desc>Y-Axis tickmarks</desc>
 <path fill="none" stroke-width="7.2" stroke="Black" d="M400 2500L367 2500M400 2295L367 2295M400 2025L367 2025M400 1820L367 1820M400 1615L367 1615M400 1345L367 1345M400 1140L367 1140M400 935L367 935M400 665L367 665M400 460L367 460"/>
<desc>Axes =====</desc>
 <path fill="none" stroke-width="12" stroke="Black" d="M400 2544L400 416M356 2500L1984 2500"/>
<desc>Y-axis labels</desc>
 <g font-family="Times New Roman" font-size="70" text-anchor="end" >
  <text x="335" y="2520" >10</text>
  <text x="335" y="2315" >20</text>
  <text x="335" y="2045" >50</text>
  <text x="335" y="1840" >100</text>
  <text x="335" y="1635" >200</text>
  <text x="335" y="1365" >500</text>
  <text x="335" y="1160" >1000</text>
  <text x="335" y="955" >2000</text>
  <text x="335" y="685" >5000</text>
  <text x="335" y="480" >10000</text>
 </g>
<desc>for X-axis labels</desc>
 <g font-family="Times New Roman" font-size="70" text-anchor="middle" >
  <text x="400" y="2614" >Dec-21</text>
  <text x="662" y="2614" >Jan-22</text>
  <text x="925" y="2614" >Feb-22</text>
  <text x="1162" y="2614" >Mar-22</text>
  <text x="1424" y="2614" >Apr-22</text>
  <text x="1678" y="2614" >May-22</text>
  <text x="1940" y="2614" >Jun-22</text>
 </g>
<desc>Heading, subheading and footnotes =====</desc>
<desc>Heading</desc>
 <g fill="Navy" font-family="Times New Roman" font-size="150" text-anchor="middle" >
  <text x="1080" y="250" >New cases per million</text>
 </g>
<desc>Start of Line Chart ===========</desc>
<desc>Points follow ...</desc>
<desc>Line</desc>
 <g stroke-width="3" stroke="Navy" stroke-linejoin="round" stroke-linecap="round" fill="none" >
  <path d="M1788 2361L1779 2295 1771 1609 1762 1712 1754 1594 1745 1779 1737 1986 1728 1991 1720 1952 1712 1568 1703 1635 1695 1513 1686 1710 1678 1925 1669 1934 1661 1851 1652 1476 1644 1583 1635 1456 1627 1617 1618 1814 1610 1761 1602 1756 1593 1373 1585 1520 1576 1448 1568 1605 1559 1482 1551 2025 1542 1384 1525 1346 1517 987 1483 1405 1466 1685 1458 1549 1449 1570 1441 2401 1432 1938 1424 1640 1415 1458 1407 1574 1398 1508 1390 1519 1382 1679 1373 1835 1365 1781 1356 1569 1348 1638 1339 1648 1331 1552 1322 1595 1314 1976 1305 1893 1297 1861 1288 1792 1280 1725 1272 1565 1263 1771 1255 2122 1246 2043 1238 1599 1229 1706 1221 1651 1212 1795 1204 1584 1195 1934 1187 1875 1178 1551 1170 1588 1162 1691 1153 1734 1145 1604 1136 1838 1128 2043 1119 1579 1111 1698 1102 1541 1094 1602 1085 1832 1077 1952 1068 1841 1060 1651 1052 1632 1043 1611 1035 1665 1026 1476 1018 1838 1009 1540 1001 1626 992 1522 984 1526 975 1534 967 1395 958 1719 950 1658 942 1455 933 1453 925 1408 916 1483 908 1312 899 1629 891 1586 882 1387 874 1225 865 1621 857 1218 848 1342 840 1725 832 1440 823 1313 815 1289 806 1283 798 1318 789 1115 781 1410 772 1359 764 1122 755 1195 747 1166 738 1181 730 1015 722 1250 713 1220 705 1088 696 1112 688 1126 679 1064 671 1154 662 1211 654 1182" />
 </g>
<desc>Points follow ...</desc>
<desc>Line</desc>
 <g stroke-width="3" stroke="Maroon" stroke-linejoin="round" stroke-linecap="round" stroke-dasharray="9 12" fill="none" >
  <path d="M1788 1875L1779 1913 1771 1740 1762 1749 1754 1708 1745 1660 1737 1820 1728 1826 1720 1685 1712 1696 1703 1700 1695 1672 1686 1663 1678 1734 1669 1779 1661 1681 1652 1679 1644 1635 1635 1605 1627 1544 1618 1665 1610 1660 1602 1571 1593 1515 1585 1449 1576 1408 1568 1334 1551 1520 1542 1559 1534 1552 1525 1420 1517 1420 1508 1369 1500 1486 1492 1500 1483 1395 1475 1369 1466 1362 1458 1315 1449 1302 1441 1419 1432 1444 1424 1351 1415 1335 1407 1256 1398 1222 1390 1216 1382 1301 1373 1302 1365 1228 1356 1148 1348 1161 1339 1117 1331 1069 1322 1172 1314 1186 1305 1114 1297 1076 1288 1034 1280 992 1272 981 1263 1050 1255 1100 1246 1082 1238 884 1229 874 1221 824 1212 851 1204 921 1195 956 1187 846 1178 622 1162 768 1153 797 1145 831 1136 833 1128 817 1119 737 1111 707 1102 665 1094 651 1085 667 1077 701 1068 625 1060 604 1052 566 1043 549 1035 549 1026 661 1018 583 1009 540 1001 516 992 483 984 476 975 506 967 611 958 597 950 576 942 569 933 541 925 476 916 533 908 665 899 600 891 563 882 484 874 498 865 524 857 525 848 568 840 556 832 601 823 524 815 566 806 580 798 623 789 668 781 696 772 709 764 726 755 701 747 717 738 742 730 872 722 786 713 912 705 802 696 698 688 673 679 708 671 1018 662 1047 654 762" />
 </g>
<desc>Points follow ...</desc>
<desc>Line</desc>
 <g stroke-width="3" stroke="Teal" stroke-linejoin="round" stroke-linecap="round" stroke-dasharray="0.3 5.7" fill="none" >
  <path d="M1788 1460L1779 1375 1771 1353 1762 1324 1754 1292 1745 1193 1737 1795 1728 1387 1720 1310 1712 1293 1703 1264 1695 1241 1686 1142 1678 1745 1669 1320 1661 1232 1652 1212 1644 1174 1635 1139 1627 1031 1618 1604 1610 1180 1602 1087 1593 1060 1585 1012 1576 893 1568 1428 1559 1503 1551 1066 1542 991 1534 957 1525 929 1517 911 1508 833 1500 1427 1492 1002 1483 921 1475 906 1466 887 1458 902 1449 805 1441 1360 1432 1017 1424 941 1415 907 1407 868 1398 869 1390 794 1382 1384 1373 995 1365 925 1356 917 1348 924 1339 896 1331 849 1322 1443 1314 1085 1305 1029 1297 1031 1288 1018 1280 999 1272 978 1263 1469 1255 1179 1246 1127 1238 1119 1229 1109 1221 1132 1212 1045 1204 1594 1195 1257 1187 1207 1178 1186 1170 1173 1162 1186 1153 1090 1145 1617 1136 1276 1128 1208 1119 1184 1111 1143 1102 1143 1094 1031 1085 1544 1077 1179 1068 1103 1060 1080 1052 1047 1043 764 1026 1417 1018 1066 1009 973 1001 943 992 668 975 771 967 1253 958 893 950 798 942 764 933 726 925 684 916 605 908 1067 899 754 891 669 882 651 874 620 865 595 857 547 848 1000 840 698 832 622 823 614 815 595 806 589 798 570 789 1017 781 722 772 676 764 672 755 691 747 644 738 639 730 1042 722 703 713 696 705 673 696 738 688 669 679 728 671 1140 662 1182 654 792" />
 </g>
<desc>Points follow ...</desc>
<desc>Line</desc>
 <g stroke-width="3" stroke="Green" stroke-linejoin="round" stroke-linecap="round" stroke-dasharray="9 6.45 0.3 6.45" fill="none" >
  <path d="M1771 1832L1762 1593 1754 1761 1745 1696 1737 1423 1712 1672 1703 1643 1695 1552 1686 1333 1652 1643 1644 1607 1635 1541 1627 1555 1618 1263 1593 1452 1585 1509 1576 1414 1568 982 1525 1357 1517 1318 1508 1309 1500 1054 1475 1287 1466 1249 1458 1223 1449 1226 1441 921 1415 1134 1407 1113 1398 1063 1390 1088 1382 801 1356 1102 1348 1024 1339 1019 1331 1042 1322 786 1297 1050 1288 1056 1280 1047 1272 973 1263 869 1238 1121 1229 1077 1221 1139 1212 1167 1204 958 1178 1265 1170 1259 1162 1263 1153 1029 1145 1085 1119 1365 1111 1308 1102 1299 1094 1288 1085 1309 1077 1373 1068 1304 1060 1247 1052 1222 1043 1208 1035 1255 1026 1288 1018 1289 1009 1257 1001 1185 992 884 984 1142 975 1147 967 1161 958 1211 950 1176 942 1084 933 1048 925 1067 916 991 899 1164 891 1122 882 1062 874 1037 865 1021 857 1044 848 1043 840 1112 832 1109 823 1039 815 1007 806 1005 798 1045 789 1063 781 1130 772 1089 764 1030 755 1010 747 949 738 984 730 922 722 924 713 925 705 855 696 853 688 831 679 795 671 841 662 937 654 882" />
 </g>
<desc>Points follow ...</desc>
<desc>Line</desc>
 <g stroke-width="3" stroke="Purple" stroke-linejoin="round" stroke-linecap="round" fill="none" >
  <path d="M1788 1845L1779 2037 1771 1508 1762 1489 1754 1351 1745 1540 1737 1467 1728 2401 1720 1886 1712 1433 1703 1537 1695 1457 1686 1710 1678 1516 1669 2106 1661 1921 1652 1642 1644 1583 1635 1527 1627 1729 1618 1601 1610 2091 1602 1976 1593 1527 1585 1650 1576 1605 1568 1774 1559 1640 1551 2267 1542 2114 1534 1803 1525 1706 1517 1670 1508 1800 1500 1764 1492 2196 1483 2106 1475 1581 1466 1716 1458 1761 1449 1901 1441 1865 1432 2401 1424 2130 1415 1832 1407 1727 1398 1774 1390 1917 1382 1774 1373 2130 1365 2196 1356 1723 1348 1745 1339 1759 1331 1913 1322 1752 1314 2139 1305 2156 1297 1838 1288 1683 1280 1725 1272 1913 1263 1803 1255 2147 1246 2176 1238 1702 1229 1723 1221 1784 1212 1854 1204 1627 1195 2114 1187 2062 1178 1694 1170 1708 1162 1681 1153 1721 1145 1499 1136 2002 1128 1716 1119 1583 1111 1614 1102 1544 1094 1529 1085 1552 1077 1930 1068 1838 1060 1385 1052 1491 1043 1455 1035 1465 1026 1338 1018 1655 1009 1691 1001 1277 992 1337 984 1309 975 1270 967 1128 958 1549 950 1539 942 1121 933 1197 925 1143 916 1147 908 996 899 1294 891 1324 882 959 874 1016 865 955 857 1024 848 839 840 1113 832 1169 823 866 815 907 806 844 798 779 789 931 781 1032 772 1080 764 853 755 859 747 864 738 886 730 719 722 1029 713 1088 705 856 696 868 688 937 679 877 671 802 662 1185 654 1308" />
 </g>
<desc>Key =====</desc>
<desc>Key - Line</desc>
 <g stroke-width="3" stroke="Navy" fill="none" >
  <path d="M616 2766L480 2766" />
 </g>
<desc>Key - Line</desc>
 <g stroke-width="3" stroke="Maroon" stroke-linecap="round" stroke-dasharray="9 12" fill="none" >
  <path d="M1293 2766L1157 2766" />
 </g>
<desc>Key - Line</desc>
 <g stroke-width="3" stroke="Teal" stroke-linecap="round" stroke-dasharray="0.3 5.7" fill="none" >
  <path d="M616 2871L480 2871" />
 </g>
<desc>Key - Line</desc>
 <g stroke-width="3" stroke="Green" stroke-linecap="round" stroke-dasharray="9 6.45 0.3 6.45" fill="none" >
  <path d="M1404 2871L1268 2871" />
 </g>
<desc>Key - Line</desc>
 <g stroke-width="3" stroke="Purple" fill="none" >
  <path d="M616 2977L480 2977" />
 </g>
 <g fill="Navy" font-family="Times New Roman" font-size="80" >
  <text x="656" y="2790" >United States</text>
 </g>
 <g fill="Navy" font-family="Times New Roman" font-size="80" >
  <text x="1333" y="2790" >Canada</text>
 </g>
 <g fill="Navy" font-family="Times New Roman" font-size="80" >
  <text x="656" y="2895" >United Kingdom</text>
 </g>
 <g fill="Navy" font-family="Times New Roman" font-size="80" >
  <text x="1444" y="2895" >France</text>
 </g>
 <g fill="Navy" font-family="Times New Roman" font-size="80" >
  <text x="656" y="3001" >Denmark</text>
 </g>
<desc>Reset from previous cell</desc>
<desc>Border =====</desc>
<desc>Region =====</desc>
<desc>X-Axis Ticks =====</desc>
<desc>X-Axis tickmarks</desc>
 <path fill="none" stroke-width="7.2" stroke="Black" d="M2560 2500L2560 2544M2822 2500L2822 2544M3085 2500L3085 2544M3322 2500L3322 2544M3584 2500L3584 2544M3838 2500L3838 2544M4100 2500L4100 2544"/>
<desc>Y-Axis Ticks =====</desc>
<desc>Y-Axis tickmarks</desc>
 <path fill="none" stroke-width="7.2" stroke="Black" d="M2560 2500L2527 2500M2560 2195L2527 2195M2560 1978L2527 1978M2560 1672L2527 1672M2560 1456L2527 1456M2560 1288L2527 1288M2560 1150L2527 1150M2560 934L2527 934M2560 765L2527 765M2560 460L2527 460"/>
<desc>Axes =====</desc>
 <path fill="none" stroke-width="12" stroke="Black" d="M2560 2544L2560 416M2516 2500L4144 2500"/>
<desc>Y-axis labels</desc>
 <g font-family="Times New Roman" font-size="70" text-anchor="end" >
  <text x="2495" y="2520" >1</text>
  <text x="2495" y="2215" >1.5</text>
  <text x="2495" y="1998" >2</text>
  <text x="2495" y="1692" >3</text>
  <text x="2495" y="1476" >4</text>
  <text x="2495" y="1308" >5</text>
  <text x="2495" y="1170" >6</text>
  <text x="2495" y="954" >8</text>
  <text x="2495" y="785" >10</text>
  <text x="2495" y="480" >15</text>
 </g>
<desc>for X-axis labels</desc>
 <g font-family="Times New Roman" font-size="70" text-anchor="middle" >
  <text x="2560" y="2614" >Dec-21</text>
  <text x="2822" y="2614" >Jan-22</text>
  <text x="3085" y="2614" >Feb-22</text>
  <text x="3322" y="2614" >Mar-22</text>
  <text x="3584" y="2614" >Apr-22</text>
  <text x="3838" y="2614" >May-22</text>
  <text x="4100" y="2614" >Jun-22</text>
 </g>
<desc>Heading, subheading and footnotes =====</desc>
<desc>Heading</desc>
 <g fill="Navy" font-family="Times New Roman" font-size="150" text-anchor="middle" >
  <text x="3240" y="250" >New deaths per million</text>
 </g>
<desc>Start of Line Chart ===========</desc>
<desc>Points follow ...</desc>
<desc>Line</desc>
 <g stroke-width="3" stroke="Navy" stroke-linejoin="round" stroke-linecap="round" fill="none" >
  <path d="M3931 1978L3922 1456 3914 1672 3905 2500 3880 2500 3872 1978 3863 1456 3855 1672 3846 2500 3812 1978 3804 1672 3795 1978 3787 2500 3762 2500 3753 1978 3745 1672 3736 1978 3702 2500 3685 1672 3677 1150 3643 2500 3626 2500 3618 2500 3575 2500 3567 2500 3558 2500 3516 2500 3508 2500 3499 2500 3482 2500 3457 2500 3448 2500 3440 2500 3423 2500 3389 2500 3381 2500 3372 2500 3364 2500 3347 2500 3338 1978 3330 2500 3322 2500 3305 2500 3279 1978 3262 1978 3254 1978 3220 2500 3212 2500 3203 2500 3195 1978 3186 1978 3169 1978 3161 1978 3152 1978 3144 1978 3135 1978 3127 1672 3118 2500 3110 2500 3102 1672 3093 1672 3085 1672 3076 1672 3068 1672 3051 1978 3042 1672 3034 1034 3025 2500 3017 1288 3008 1456 3000 2500 2992 1672 2983 1456 2975 1456 2966 1288 2958 1456 2949 1456 2941 1978 2932 1456 2924 1456 2915 1456 2907 1456 2898 1456 2890 1456 2882 1978 2873 2500 2865 1978 2856 1978 2848 1672 2839 2500 2831 1978 2822 2500 2814 2500" />
 </g>
<desc>Points follow ...</desc>
<desc>Line</desc>
 <g stroke-width="3" stroke="Maroon" stroke-linejoin="round" stroke-linecap="round" stroke-dasharray="9 12" fill="none" >
  <path d="M3939 2500L3931 2500 3922 2500 3914 2500 3905 2500 3897 2500 3880 2500 3872 2500 3863 2500 3855 1978 3846 2500 3838 1978 3829 1978 3821 2500 3812 1978 3804 2500 3795 2500 3787 2500 3778 1672 3770 1978 3762 1978 3753 1978 3745 1978 3736 2500 3728 1672 3711 1978 3702 2500 3694 1978 3685 1978 3677 1978 3668 2500 3660 1978 3652 1672 3643 1456 3635 1456 3626 1456 3618 1978 3609 1672 3601 1978 3592 1978 3584 1672 3575 1456 3567 1288 3558 512 3525 1034 3516 1456 3508 1288 3499 1456 3491 1288 3482 1456 3474 1456 3465 1150 3457 1150 3448 1034 3440 1456 3432 1150 3423 1672 3415 934 3406 934 3398 1456 3389 1034 3381 765 3372 1034 3364 1150 3355 1150 3347 845 3338 512 3322 1150 3313 1150 3305 1456 3296 1034 3288 1150 3279 1150 3271 1150 3262 934 3254 1288 3245 1456 3237 1288 3228 1456 3220 1034 3212 1034 3203 1456 3195 1288 3186 1034 3178 1288 3169 1150 3161 1456 3152 1456 3144 1672 3135 1672 3127 1456 3118 1672 3110 1150 3102 1978 3093 1672 3085 1672 3076 1978 3068 1978 3059 1672 3051 1978 3042 1456 3034 1672 3025 1672 3017 1978 3008 1978 3000 1978 2992 1456 2983 1672 2975 1978 2966 1978 2958 1978 2949 2500 2941 2500 2932 1978 2924 1978 2915 1672 2907 1456 2898 1978 2890 2500 2882 1978 2873 1456 2865 2500 2856 2500 2848 1978 2839 1978 2822 1978" />
 </g>
<desc>Points follow ...</desc>
<desc>Line</desc>
 <g stroke-width="3" stroke="Teal" stroke-linejoin="round" stroke-linecap="round" stroke-dasharray="0.3 5.7" fill="none" >
  <path d="M3931 2500L3922 2500 3914 2500 3905 2500 3897 2500 3872 2500 3863 2500 3855 2500 3846 2500 3838 1978 3812 1978 3804 2500 3795 1978 3787 1978 3778 1978 3762 2500 3753 1978 3745 1978 3736 1672 3728 1978 3694 1978 3685 2500 3677 1978 3668 1978 3660 1978 3643 2500 3635 1978 3626 2500 3618 2500 3609 2500 3601 1978 3584 2500 3575 2500 3567 1978 3558 1978 3550 1978 3542 1978 3516 2500 3508 2500 3499 2500 3491 2500 3482 1978 3457 2500 3448 2500 3440 1978 3432 1978 3423 1978 3398 1978 3389 2500 3381 1978 3372 1978 3364 1978 3347 2500 3338 1978 3330 1978 3322 1978 3313 1672 3305 1672 3296 2500 3288 2500 3279 1978 3271 1456 3262 1672 3254 845 3228 1978 3220 1456 3212 1456 3203 845 3186 1288 3178 2500 3169 1978 3161 1672 3152 845 3135 765 3127 1150 3118 2500 3110 1978 3102 1288 3093 1672 3085 1456 3076 1288 3068 1288 3059 2500 3051 1978 3042 1672 3034 1672 3025 1672 3017 1150 3008 1288 3000 2500 2992 1978 2983 1672 2975 1150 2958 1288 2949 1456 2941 2500 2932 1978 2924 1978 2915 1672 2907 1672 2898 1288 2890 1456 2882 2500 2873 1978 2865 1978 2856 1672 2848 1672 2839 1288 2831 1456 2822 2500 2814 2500" />
 </g>
<desc>Points follow ...</desc>
<desc>Line</desc>
 <g stroke-width="3" stroke="Green" stroke-linejoin="round" stroke-linecap="round" stroke-dasharray="9 6.45 0.3 6.45" fill="none" >
  <path d="M3931 1978L3922 1978 3914 1672 3905 1456 3897 1672 3872 1672 3863 1150 3855 1672 3846 1288 3812 1672 3804 1672 3795 1456 3787 1150 3778 1456 3753 1456 3745 845 3736 1034 3728 1034 3685 1288 3677 845 3668 1456 3660 1288 3635 1288 3626 1456 3609 1288 3601 1672 3575 1978 3567 1978 3558 1672 3550 1456 3542 1672 3516 1978 3508 1978 3499 1978 3491 1672 3482 1978 3457 2500 3448 1978 3440 1978 3432 1672 3423 2500 3398 2500 3389 1978 3381 2500 3372 1672 3364 1978 3338 2500 3330 1978 3322 2500 3313 1672 3305 1978 3279 2500 3271 2500 3262 1978 3254 1672 3237 2500 3228 2500 3220 1978 3212 1978 3203 1978 3195 1672 3169 1978 3161 1978 3152 1672 3144 1456 3135 1456 3118 2500 3110 1672 3102 1672 3093 1456 3085 1034 3059 2500 3051 1456 3042 1456 3034 1456 3025 1288 3017 1150 3000 2500 2992 1456 2983 1456 2975 1456 2966 1288 2958 1150 2949 2500 2941 2500 2932 1456 2924 1672 2915 1456 2907 1288 2898 1288 2890 2500 2882 2500 2873 1456 2865 1672 2856 1672 2848 1288 2822 2500 2814 1978" />
 </g>
<desc>Points follow ...</desc>
<desc>Line</desc>
 <g stroke-width="3" stroke="Purple" stroke-linejoin="round" stroke-linecap="round" fill="none" >
  <path d="M3931 2500L3914 1978 3872 2500 3855 1288 3846 1978 3812 2500 3804 2500 3795 1978 3753 2500 3745 2500 3736 1978 3728 2500 3694 2500 3685 2500 3677 1978 3668 2500 3660 2500 3635 2500 3626 1978 3618 1672 3609 2500 3601 2500 3575 1978 3567 2500 3558 1672 3550 1978 3542 1672 3516 2500 3508 1978 3499 1456 3491 2500 3482 1456 3457 1978 3448 1456 3440 1288 3432 1672 3423 1672 3398 1456 3389 1288 3381 1150 3372 1456 3364 1288 3338 1288 3330 1288 3322 1150 3313 1288 3305 1150 3288 1978 3279 1150 3271 934 3262 845 3254 1150 3245 1978 3237 2500 3228 2500 3220 1034 3212 934 3203 845 3195 1034 3186 845 3178 2500 3169 1978 3161 934 3152 845 3144 765 3135 934 3127 845 3118 2500 3110 1978 3102 628 3093 1034 3085 765 3076 765 3068 1034 3059 2500 3051 1672 3042 628 3034 1034 3025 694 3017 845 3008 1150 3000 1978 2992 1978 2983 765 2975 934 2966 765 2958 934 2949 1672 2941 1978 2932 1978 2924 934 2915 1034 2907 934 2898 1034 2890 1150 2882 2500 2873 1978 2865 1034 2856 1150 2848 1150 2839 1150 2831 1288 2822 2500 2814 2500" />
 </g>
<desc>Key =====</desc>
<desc>Key - Line</desc>
 <g stroke-width="3" stroke="Navy" fill="none" >
  <path d="M2776 2766L2640 2766" />
 </g>
<desc>Key - Line</desc>
 <g stroke-width="3" stroke="Maroon" stroke-linecap="round" stroke-dasharray="9 12" fill="none" >
  <path d="M3453 2766L3317 2766" />
 </g>
<desc>Key - Line</desc>
 <g stroke-width="3" stroke="Teal" stroke-linecap="round" stroke-dasharray="0.3 5.7" fill="none" >
  <path d="M2776 2871L2640 2871" />
 </g>
<desc>Key - Line</desc>
 <g stroke-width="3" stroke="Green" stroke-linecap="round" stroke-dasharray="9 6.45 0.3 6.45" fill="none" >
  <path d="M3564 2871L3428 2871" />
 </g>
<desc>Key - Line</desc>
 <g stroke-width="3" stroke="Purple" fill="none" >
  <path d="M2776 2977L2640 2977" />
 </g>
 <g fill="Navy" font-family="Times New Roman" font-size="80" >
  <text x="2816" y="2790" >United States</text>
 </g>
 <g fill="Navy" font-family="Times New Roman" font-size="80" >
  <text x="3493" y="2790" >Canada</text>
 </g>
 <g fill="Navy" font-family="Times New Roman" font-size="80" >
  <text x="2816" y="2895" >United Kingdom</text>
 </g>
 <g fill="Navy" font-family="Times New Roman" font-size="80" >
  <text x="3604" y="2895" >France</text>
 </g>
 <g fill="Navy" font-family="Times New Roman" font-size="80" >
  <text x="2816" y="3001" >Denmark</text>
 </g>
<desc>Reset to original origin</desc>
</g>
</svg>
